<svg width="800" height="300" viewBox="0 0 800 300" fill="none" xmlns="http://www.w3.org/2000/svg">
<path d="M65.904 113.56C65.52 113.56 65.184 113.528 64.896 113.464C64.608 113.416 64.352 113.344 64.128 113.248V111.424C64.384 111.488 64.656 111.544 64.944 111.592C65.232 111.64 65.536 111.664 65.856 111.664C66.256 111.664 66.632 111.584 66.984 111.424C67.352 111.264 67.648 110.984 67.872 110.584C68.096 110.184 68.208 109.624 68.208 108.904V91.864H70.368V108.736C70.368 110.384 69.96 111.6 69.144 112.384C68.328 113.168 67.248 113.56 65.904 113.56ZM79.4745 95.92C81.0425 95.92 82.2025 96.264 82.9545 96.952C83.7065 97.64 84.0825 98.736 84.0825 100.24V109H82.5465L82.1385 107.176H82.0425C81.4825 107.88 80.8905 108.4 80.2665 108.736C79.6585 109.072 78.8105 109.24 77.7225 109.24C76.5545 109.24 75.5865 108.936 74.8185 108.328C74.0505 107.704 73.6665 106.736 73.6665 105.424C73.6665 104.144 74.1705 103.16 75.1785 102.472C76.1865 101.768 77.7385 101.384 79.8345 101.32L82.0185 101.248V100.48C82.0185 99.408 81.7865 98.664 81.3225 98.248C80.8585 97.832 80.2025 97.624 79.3545 97.624C78.6825 97.624 78.0425 97.728 77.4345 97.936C76.8265 98.128 76.2585 98.352 75.7305 98.608L75.0825 97.024C75.6425 96.72 76.3065 96.464 77.0745 96.256C77.8425 96.032 78.6425 95.92 79.4745 95.92ZM80.0985 102.784C78.4985 102.848 77.3865 103.104 76.7625 103.552C76.1545 104 75.8505 104.632 75.8505 105.448C75.8505 106.168 76.0665 106.696 76.4985 107.032C76.9465 107.368 77.5145 107.536 78.2025 107.536C79.2905 107.536 80.1945 107.24 80.9145 106.648C81.6345 106.04 81.9945 105.112 81.9945 103.864V102.712L80.0985 102.784ZM92.3516 107.512C92.6716 107.512 92.9996 107.488 93.3356 107.44C93.6716 107.376 93.9436 107.312 94.1516 107.248V108.856C93.9276 108.968 93.6076 109.056 93.1916 109.12C92.7756 109.2 92.3756 109.24 91.9916 109.24C91.3196 109.24 90.6956 109.128 90.1196 108.904C89.5596 108.664 89.1036 108.256 88.7516 107.68C88.3996 107.104 88.2236 106.296 88.2236 105.256V97.768H86.3996V96.76L88.2476 95.92L89.0876 93.184H90.3356V96.136H94.0556V97.768H90.3356V105.208C90.3356 105.992 90.5196 106.576 90.8876 106.96C91.2716 107.328 91.7596 107.512 92.3516 107.512ZM97.8075 91.312C98.1275 91.312 98.4075 91.424 98.6475 91.648C98.9035 91.856 99.0315 92.192 99.0315 92.656C99.0315 93.104 98.9035 93.44 98.6475 93.664C98.4075 93.888 98.1275 94 97.8075 94C97.4555 94 97.1595 93.888 96.9195 93.664C96.6795 93.44 96.5595 93.104 96.5595 92.656C96.5595 92.192 96.6795 91.856 96.9195 91.648C97.1595 91.424 97.4555 91.312 97.8075 91.312ZM98.8395 96.136V109H96.7275V96.136H98.8395ZM111.291 105.448C111.291 106.696 110.827 107.64 109.899 108.28C108.971 108.92 107.723 109.24 106.155 109.24C105.259 109.24 104.483 109.168 103.827 109.024C103.187 108.88 102.619 108.68 102.123 108.424V106.504C102.635 106.76 103.251 107 103.971 107.224C104.707 107.432 105.451 107.536 106.203 107.536C107.275 107.536 108.051 107.368 108.531 107.032C109.011 106.68 109.251 106.216 109.251 105.64C109.251 105.32 109.163 105.032 108.987 104.776C108.811 104.52 108.491 104.264 108.027 104.008C107.579 103.752 106.931 103.464 106.083 103.144C105.251 102.824 104.539 102.504 103.947 102.184C103.355 101.864 102.899 101.48 102.579 101.032C102.259 100.584 102.099 100.008 102.099 99.304C102.099 98.216 102.539 97.376 103.419 96.784C104.315 96.192 105.483 95.896 106.923 95.896C107.707 95.896 108.435 95.976 109.107 96.136C109.795 96.28 110.435 96.488 111.027 96.76L110.307 98.44C109.763 98.216 109.195 98.024 108.603 97.864C108.011 97.704 107.403 97.624 106.779 97.624C105.915 97.624 105.251 97.768 104.787 98.056C104.339 98.328 104.115 98.704 104.115 99.184C104.115 99.536 104.219 99.84 104.427 100.096C104.635 100.336 104.979 100.576 105.459 100.816C105.955 101.04 106.611 101.312 107.427 101.632C108.243 101.936 108.939 102.248 109.515 102.568C110.091 102.888 110.531 103.28 110.835 103.744C111.139 104.192 111.291 104.76 111.291 105.448ZM125.506 95.92C127.074 95.92 128.234 96.264 128.986 96.952C129.738 97.64 130.114 98.736 130.114 100.24V109H128.578L128.17 107.176H128.074C127.514 107.88 126.922 108.4 126.298 108.736C125.69 109.072 124.842 109.24 123.754 109.24C122.586 109.24 121.618 108.936 120.85 108.328C120.082 107.704 119.698 106.736 119.698 105.424C119.698 104.144 120.202 103.16 121.21 102.472C122.218 101.768 123.77 101.384 125.866 101.32L128.05 101.248V100.48C128.05 99.408 127.818 98.664 127.354 98.248C126.89 97.832 126.234 97.624 125.386 97.624C124.714 97.624 124.074 97.728 123.466 97.936C122.858 98.128 122.29 98.352 121.762 98.608L121.114 97.024C121.674 96.72 122.338 96.464 123.106 96.256C123.874 96.032 124.674 95.92 125.506 95.92ZM126.13 102.784C124.53 102.848 123.418 103.104 122.794 103.552C122.186 104 121.882 104.632 121.882 105.448C121.882 106.168 122.098 106.696 122.53 107.032C122.978 107.368 123.546 107.536 124.234 107.536C125.322 107.536 126.226 107.24 126.946 106.648C127.666 106.04 128.026 105.112 128.026 103.864V102.712L126.13 102.784ZM140.279 95.896C141.815 95.896 142.975 96.272 143.759 97.024C144.543 97.76 144.935 98.96 144.935 100.624V109H142.847V100.768C142.847 98.704 141.887 97.672 139.967 97.672C138.543 97.672 137.559 98.072 137.015 98.872C136.471 99.672 136.199 100.824 136.199 102.328V109H134.087V96.136H135.791L136.103 97.888H136.223C136.639 97.216 137.215 96.72 137.951 96.4C138.687 96.064 139.463 95.896 140.279 95.896ZM153.483 109.24C151.883 109.24 150.603 108.688 149.643 107.584C148.683 106.464 148.203 104.8 148.203 102.592C148.203 100.384 148.683 98.72 149.643 97.6C150.619 96.464 151.907 95.896 153.507 95.896C154.499 95.896 155.307 96.08 155.931 96.448C156.571 96.816 157.091 97.264 157.491 97.792H157.635C157.619 97.584 157.587 97.28 157.539 96.88C157.507 96.464 157.491 96.136 157.491 95.896V90.76H159.603V109H157.899L157.587 107.272H157.491C157.107 107.816 156.595 108.28 155.955 108.664C155.315 109.048 154.491 109.24 153.483 109.24ZM153.819 107.488C155.179 107.488 156.131 107.12 156.675 106.384C157.235 105.632 157.515 104.504 157.515 103V102.616C157.515 101.016 157.251 99.792 156.723 98.944C156.195 98.08 155.219 97.648 153.795 97.648C152.659 97.648 151.803 98.104 151.227 99.016C150.667 99.912 150.387 101.12 150.387 102.64C150.387 104.176 150.667 105.368 151.227 106.216C151.803 107.064 152.667 107.488 153.819 107.488ZM177.771 109L172.131 93.976H172.035C172.083 94.472 172.123 95.144 172.155 95.992C172.187 96.824 172.203 97.696 172.203 98.608V109H170.211V91.864H173.403L178.683 105.904H178.779L184.155 91.864H187.323V109H185.187V98.464C185.187 97.632 185.203 96.808 185.235 95.992C185.283 95.176 185.323 94.512 185.355 94H185.259L179.547 109H177.771ZM202.448 96.136V109H200.72L200.408 107.296H200.312C199.896 107.968 199.32 108.464 198.584 108.784C197.848 109.088 197.064 109.24 196.232 109.24C194.68 109.24 193.512 108.872 192.728 108.136C191.944 107.384 191.552 106.192 191.552 104.56V96.136H193.688V104.416C193.688 106.464 194.64 107.488 196.544 107.488C197.968 107.488 198.952 107.088 199.496 106.288C200.056 105.488 200.336 104.336 200.336 102.832V96.136H202.448ZM212.532 95.896C212.772 95.896 213.028 95.912 213.3 95.944C213.588 95.96 213.836 95.992 214.044 96.04L213.78 97.984C213.572 97.936 213.34 97.896 213.084 97.864C212.844 97.832 212.612 97.816 212.388 97.816C211.732 97.816 211.116 98 210.54 98.368C209.964 98.72 209.5 99.224 209.148 99.88C208.812 100.52 208.644 101.272 208.644 102.136V109H206.532V96.136H208.26L208.5 98.488H208.596C209.012 97.784 209.548 97.176 210.204 96.664C210.86 96.152 211.636 95.896 212.532 95.896ZM221.138 109.24C220.002 109.24 218.986 109.008 218.09 108.544C217.21 108.08 216.514 107.36 216.002 106.384C215.506 105.408 215.258 104.16 215.258 102.64C215.258 101.056 215.522 99.768 216.05 98.776C216.578 97.784 217.29 97.056 218.186 96.592C219.098 96.128 220.13 95.896 221.282 95.896C221.938 95.896 222.57 95.968 223.178 96.112C223.786 96.24 224.282 96.4 224.666 96.592L224.018 98.344C223.634 98.2 223.186 98.064 222.674 97.936C222.162 97.808 221.682 97.744 221.234 97.744C218.706 97.744 217.442 99.368 217.442 102.616C217.442 104.168 217.746 105.36 218.354 106.192C218.978 107.008 219.898 107.416 221.114 107.416C221.818 107.416 222.434 107.344 222.962 107.2C223.506 107.056 224.002 106.88 224.45 106.672V108.544C224.018 108.768 223.538 108.936 223.01 109.048C222.498 109.176 221.874 109.24 221.138 109.24ZM229.621 96.112C229.621 96.752 229.581 97.352 229.501 97.912H229.645C230.061 97.256 230.621 96.76 231.325 96.424C232.045 96.088 232.821 95.92 233.653 95.92C235.221 95.92 236.397 96.296 237.181 97.048C237.965 97.784 238.357 98.976 238.357 100.624V109H236.269V100.768C236.269 98.704 235.309 97.672 233.389 97.672C231.949 97.672 230.957 98.08 230.413 98.896C229.885 99.696 229.621 100.848 229.621 102.352V109H227.509V90.76H229.621V96.112ZM244.457 96.112C244.457 96.752 244.417 97.352 244.337 97.912H244.481C244.897 97.256 245.457 96.76 246.161 96.424C246.881 96.088 247.657 95.92 248.489 95.92C250.057 95.92 251.233 96.296 252.017 97.048C252.801 97.784 253.193 98.976 253.193 100.624V109H251.105V100.768C251.105 98.704 250.145 97.672 248.225 97.672C246.785 97.672 245.793 98.08 245.249 98.896C244.721 99.696 244.457 100.848 244.457 102.352V109H242.345V90.76H244.457V96.112ZM262.053 95.92C263.621 95.92 264.781 96.264 265.533 96.952C266.285 97.64 266.661 98.736 266.661 100.24V109H265.125L264.717 107.176H264.621C264.061 107.88 263.469 108.4 262.845 108.736C262.237 109.072 261.389 109.24 260.301 109.24C259.133 109.24 258.165 108.936 257.397 108.328C256.629 107.704 256.245 106.736 256.245 105.424C256.245 104.144 256.749 103.16 257.757 102.472C258.765 101.768 260.317 101.384 262.413 101.32L264.597 101.248V100.48C264.597 99.408 264.365 98.664 263.901 98.248C263.437 97.832 262.781 97.624 261.933 97.624C261.261 97.624 260.621 97.728 260.013 97.936C259.405 98.128 258.837 98.352 258.309 98.608L257.661 97.024C258.221 96.72 258.885 96.464 259.653 96.256C260.421 96.032 261.221 95.92 262.053 95.92ZM262.677 102.784C261.077 102.848 259.965 103.104 259.341 103.552C258.733 104 258.429 104.632 258.429 105.448C258.429 106.168 258.645 106.696 259.077 107.032C259.525 107.368 260.093 107.536 260.781 107.536C261.869 107.536 262.773 107.24 263.493 106.648C264.213 106.04 264.573 105.112 264.573 103.864V102.712L262.677 102.784ZM276.826 95.896C278.362 95.896 279.522 96.272 280.306 97.024C281.09 97.76 281.482 98.96 281.482 100.624V109H279.394V100.768C279.394 98.704 278.434 97.672 276.514 97.672C275.09 97.672 274.106 98.072 273.562 98.872C273.018 99.672 272.746 100.824 272.746 102.328V109H270.634V96.136H272.338L272.65 97.888H272.77C273.186 97.216 273.762 96.72 274.498 96.4C275.234 96.064 276.01 95.896 276.826 95.896ZM290.342 95.92C291.91 95.92 293.07 96.264 293.822 96.952C294.574 97.64 294.95 98.736 294.95 100.24V109H293.414L293.006 107.176H292.91C292.35 107.88 291.758 108.4 291.134 108.736C290.526 109.072 289.678 109.24 288.59 109.24C287.422 109.24 286.454 108.936 285.686 108.328C284.918 107.704 284.534 106.736 284.534 105.424C284.534 104.144 285.038 103.16 286.046 102.472C287.054 101.768 288.606 101.384 290.702 101.32L292.886 101.248V100.48C292.886 99.408 292.654 98.664 292.19 98.248C291.726 97.832 291.07 97.624 290.222 97.624C289.55 97.624 288.91 97.728 288.302 97.936C287.694 98.128 287.126 98.352 286.598 98.608L285.95 97.024C286.51 96.72 287.174 96.464 287.942 96.256C288.71 96.032 289.51 95.92 290.342 95.92ZM290.966 102.784C289.366 102.848 288.254 103.104 287.63 103.552C287.022 104 286.718 104.632 286.718 105.448C286.718 106.168 286.934 106.696 287.366 107.032C287.814 107.368 288.382 107.536 289.07 107.536C290.158 107.536 291.062 107.24 291.782 106.648C292.502 106.04 292.862 105.112 292.862 103.864V102.712L290.966 102.784ZM307.299 105.448C307.299 106.696 306.835 107.64 305.907 108.28C304.979 108.92 303.731 109.24 302.163 109.24C301.267 109.24 300.491 109.168 299.835 109.024C299.195 108.88 298.627 108.68 298.131 108.424V106.504C298.643 106.76 299.259 107 299.979 107.224C300.715 107.432 301.459 107.536 302.211 107.536C303.283 107.536 304.059 107.368 304.539 107.032C305.019 106.68 305.259 106.216 305.259 105.64C305.259 105.32 305.171 105.032 304.995 104.776C304.819 104.52 304.499 104.264 304.035 104.008C303.587 103.752 302.939 103.464 302.091 103.144C301.259 102.824 300.547 102.504 299.955 102.184C299.363 101.864 298.907 101.48 298.587 101.032C298.267 100.584 298.107 100.008 298.107 99.304C298.107 98.216 298.547 97.376 299.427 96.784C300.323 96.192 301.491 95.896 302.931 95.896C303.715 95.896 304.443 95.976 305.115 96.136C305.803 96.28 306.443 96.488 307.035 96.76L306.315 98.44C305.771 98.216 305.203 98.024 304.611 97.864C304.019 97.704 303.411 97.624 302.787 97.624C301.923 97.624 301.259 97.768 300.795 98.056C300.347 98.328 300.123 98.704 300.123 99.184C300.123 99.536 300.227 99.84 300.435 100.096C300.643 100.336 300.987 100.576 301.467 100.816C301.963 101.04 302.619 101.312 303.435 101.632C304.251 101.936 304.947 102.248 305.523 102.568C306.099 102.888 306.539 103.28 306.843 103.744C307.147 104.192 307.299 104.76 307.299 105.448Z" fill="#838387"/>
<path d="M476.056 91.864C478.184 91.864 479.752 92.272 480.76 93.088C481.784 93.888 482.296 95.104 482.296 96.736C482.296 97.648 482.128 98.408 481.792 99.016C481.456 99.624 481.024 100.112 480.496 100.48C479.984 100.832 479.44 101.112 478.864 101.32L483.568 109H481.048L476.896 101.92H473.488V109H471.328V91.864H476.056ZM475.936 93.736H473.488V100.096H476.056C477.448 100.096 478.464 99.824 479.104 99.28C479.744 98.72 480.064 97.904 480.064 96.832C480.064 95.712 479.728 94.92 479.056 94.456C478.384 93.976 477.344 93.736 475.936 93.736ZM490.842 95.92C492.41 95.92 493.57 96.264 494.322 96.952C495.074 97.64 495.45 98.736 495.45 100.24V109H493.914L493.506 107.176H493.41C492.85 107.88 492.258 108.4 491.634 108.736C491.026 109.072 490.178 109.24 489.09 109.24C487.922 109.24 486.954 108.936 486.186 108.328C485.418 107.704 485.034 106.736 485.034 105.424C485.034 104.144 485.538 103.16 486.546 102.472C487.554 101.768 489.106 101.384 491.202 101.32L493.386 101.248V100.48C493.386 99.408 493.154 98.664 492.69 98.248C492.226 97.832 491.57 97.624 490.722 97.624C490.05 97.624 489.41 97.728 488.802 97.936C488.194 98.128 487.626 98.352 487.098 98.608L486.45 97.024C487.01 96.72 487.674 96.464 488.442 96.256C489.21 96.032 490.01 95.92 490.842 95.92ZM491.466 102.784C489.866 102.848 488.754 103.104 488.13 103.552C487.522 104 487.218 104.632 487.218 105.448C487.218 106.168 487.434 106.696 487.866 107.032C488.314 107.368 488.882 107.536 489.57 107.536C490.658 107.536 491.562 107.24 492.282 106.648C493.002 106.04 493.362 105.112 493.362 103.864V102.712L491.466 102.784ZM503.983 95.896C504.831 95.896 505.591 96.056 506.263 96.376C506.951 96.696 507.535 97.184 508.015 97.84H508.135L508.423 96.136H510.103V109.216C510.103 111.056 509.631 112.44 508.687 113.368C507.759 114.296 506.311 114.76 504.343 114.76C502.455 114.76 500.911 114.488 499.711 113.944V112C500.975 112.672 502.559 113.008 504.463 113.008C505.567 113.008 506.431 112.68 507.055 112.024C507.695 111.384 508.015 110.504 508.015 109.384V108.88C508.015 108.688 508.023 108.416 508.039 108.064C508.055 107.696 508.071 107.44 508.087 107.296H507.991C507.127 108.592 505.799 109.24 504.007 109.24C502.343 109.24 501.039 108.656 500.095 107.488C499.167 106.32 498.703 104.688 498.703 102.592C498.703 100.544 499.167 98.92 500.095 97.72C501.039 96.504 502.335 95.896 503.983 95.896ZM504.271 97.672C503.199 97.672 502.367 98.104 501.775 98.968C501.183 99.816 500.887 101.032 500.887 102.616C500.887 104.2 501.175 105.416 501.751 106.264C502.343 107.096 503.199 107.512 504.319 107.512C505.615 107.512 506.559 107.168 507.151 106.48C507.743 105.776 508.039 104.648 508.039 103.096V102.592C508.039 100.832 507.735 99.576 507.127 98.824C506.519 98.056 505.567 97.672 504.271 97.672ZM519.06 95.92C520.628 95.92 521.788 96.264 522.54 96.952C523.292 97.64 523.668 98.736 523.668 100.24V109H522.132L521.724 107.176H521.628C521.068 107.88 520.476 108.4 519.852 108.736C519.244 109.072 518.396 109.24 517.308 109.24C516.14 109.24 515.172 108.936 514.404 108.328C513.636 107.704 513.252 106.736 513.252 105.424C513.252 104.144 513.756 103.16 514.764 102.472C515.772 101.768 517.324 101.384 519.42 101.32L521.604 101.248V100.48C521.604 99.408 521.372 98.664 520.908 98.248C520.444 97.832 519.788 97.624 518.94 97.624C518.268 97.624 517.628 97.728 517.02 97.936C516.412 98.128 515.844 98.352 515.316 98.608L514.668 97.024C515.228 96.72 515.892 96.464 516.66 96.256C517.428 96.032 518.228 95.92 519.06 95.92ZM519.684 102.784C518.084 102.848 516.972 103.104 516.348 103.552C515.74 104 515.436 104.632 515.436 105.448C515.436 106.168 515.652 106.696 516.084 107.032C516.532 107.368 517.1 107.536 517.788 107.536C518.876 107.536 519.78 107.24 520.5 106.648C521.22 106.04 521.58 105.112 521.58 103.864V102.712L519.684 102.784ZM536.018 105.448C536.018 106.696 535.554 107.64 534.626 108.28C533.698 108.92 532.45 109.24 530.882 109.24C529.986 109.24 529.21 109.168 528.554 109.024C527.914 108.88 527.346 108.68 526.85 108.424V106.504C527.362 106.76 527.978 107 528.698 107.224C529.434 107.432 530.178 107.536 530.93 107.536C532.002 107.536 532.778 107.368 533.258 107.032C533.738 106.68 533.978 106.216 533.978 105.64C533.978 105.32 533.89 105.032 533.714 104.776C533.538 104.52 533.218 104.264 532.754 104.008C532.306 103.752 531.658 103.464 530.81 103.144C529.978 102.824 529.266 102.504 528.674 102.184C528.082 101.864 527.626 101.48 527.306 101.032C526.986 100.584 526.826 100.008 526.826 99.304C526.826 98.216 527.266 97.376 528.146 96.784C529.042 96.192 530.21 95.896 531.65 95.896C532.434 95.896 533.162 95.976 533.834 96.136C534.522 96.28 535.162 96.488 535.754 96.76L535.034 98.44C534.49 98.216 533.922 98.024 533.33 97.864C532.738 97.704 532.13 97.624 531.506 97.624C530.642 97.624 529.978 97.768 529.514 98.056C529.066 98.328 528.842 98.704 528.842 99.184C528.842 99.536 528.946 99.84 529.154 100.096C529.362 100.336 529.706 100.576 530.186 100.816C530.682 101.04 531.338 101.312 532.154 101.632C532.97 101.936 533.666 102.248 534.242 102.568C534.818 102.888 535.258 103.28 535.562 103.744C535.866 104.192 536.018 104.76 536.018 105.448ZM553.664 101.728C553.456 101.072 553.272 100.432 553.112 99.808C552.968 99.168 552.856 98.672 552.776 98.32H552.68C552.616 98.672 552.512 99.168 552.368 99.808C552.224 100.432 552.04 101.08 551.816 101.752L549.512 108.976H547.112L543.584 96.112H545.768L547.544 102.976C547.72 103.664 547.888 104.36 548.048 105.064C548.208 105.768 548.32 106.352 548.384 106.816H548.48C548.544 106.544 548.616 106.208 548.696 105.808C548.792 105.408 548.896 104.992 549.008 104.56C549.12 104.112 549.232 103.712 549.344 103.36L551.624 96.112H553.928L556.136 103.36C556.312 103.904 556.48 104.496 556.64 105.136C556.816 105.776 556.936 106.328 557 106.792H557.096C557.144 106.392 557.248 105.84 557.408 105.136C557.584 104.432 557.768 103.712 557.96 102.976L559.76 96.112H561.92L558.344 108.976H555.872L553.664 101.728ZM565.308 91.312C565.628 91.312 565.908 91.424 566.148 91.648C566.404 91.856 566.532 92.192 566.532 92.656C566.532 93.104 566.404 93.44 566.148 93.664C565.908 93.888 565.628 94 565.308 94C564.956 94 564.66 93.888 564.42 93.664C564.18 93.44 564.06 93.104 564.06 92.656C564.06 92.192 564.18 91.856 564.42 91.648C564.66 91.424 564.956 91.312 565.308 91.312ZM566.34 96.136V109H564.228V96.136H566.34ZM574.711 107.512C575.031 107.512 575.359 107.488 575.695 107.44C576.031 107.376 576.303 107.312 576.511 107.248V108.856C576.287 108.968 575.967 109.056 575.551 109.12C575.135 109.2 574.735 109.24 574.351 109.24C573.679 109.24 573.055 109.128 572.479 108.904C571.919 108.664 571.463 108.256 571.111 107.68C570.759 107.104 570.583 106.296 570.583 105.256V97.768H568.759V96.76L570.607 95.92L571.447 93.184H572.695V96.136H576.415V97.768H572.695V105.208C572.695 105.992 572.879 106.576 573.247 106.96C573.631 107.328 574.119 107.512 574.711 107.512ZM581.199 96.112C581.199 96.752 581.159 97.352 581.079 97.912H581.223C581.639 97.256 582.199 96.76 582.903 96.424C583.623 96.088 584.399 95.92 585.231 95.92C586.799 95.92 587.975 96.296 588.759 97.048C589.543 97.784 589.935 98.976 589.935 100.624V109H587.847V100.768C587.847 98.704 586.887 97.672 584.967 97.672C583.527 97.672 582.535 98.08 581.991 98.896C581.463 99.696 581.199 100.848 581.199 102.352V109H579.087V90.76H581.199V96.112ZM611.197 109L609.133 103.696H602.341L600.301 109H598.117L604.813 91.792H606.757L613.429 109H611.197ZM606.565 96.592C606.517 96.464 606.437 96.232 606.325 95.896C606.213 95.56 606.101 95.216 605.989 94.864C605.893 94.496 605.813 94.216 605.749 94.024C605.637 94.52 605.509 95.008 605.365 95.488C605.221 95.952 605.101 96.32 605.005 96.592L603.061 101.776H608.485L606.565 96.592ZM620.045 109.24C618.445 109.24 617.165 108.688 616.205 107.584C615.245 106.464 614.765 104.8 614.765 102.592C614.765 100.384 615.245 98.72 616.205 97.6C617.181 96.464 618.469 95.896 620.069 95.896C621.061 95.896 621.869 96.08 622.493 96.448C623.133 96.816 623.653 97.264 624.053 97.792H624.197C624.181 97.584 624.149 97.28 624.101 96.88C624.069 96.464 624.053 96.136 624.053 95.896V90.76H626.165V109H624.461L624.149 107.272H624.053C623.669 107.816 623.157 108.28 622.517 108.664C621.877 109.048 621.053 109.24 620.045 109.24ZM620.381 107.488C621.741 107.488 622.693 107.12 623.237 106.384C623.797 105.632 624.077 104.504 624.077 103V102.616C624.077 101.016 623.813 99.792 623.285 98.944C622.757 98.08 621.781 97.648 620.357 97.648C619.221 97.648 618.365 98.104 617.789 99.016C617.229 99.912 616.949 101.12 616.949 102.64C616.949 104.176 617.229 105.368 617.789 106.216C618.365 107.064 619.229 107.488 620.381 107.488ZM632.363 96.112C632.363 96.752 632.323 97.352 632.243 97.912H632.387C632.803 97.256 633.363 96.76 634.067 96.424C634.787 96.088 635.563 95.92 636.395 95.92C637.963 95.92 639.139 96.296 639.923 97.048C640.707 97.784 641.099 98.976 641.099 100.624V109H639.011V100.768C639.011 98.704 638.051 97.672 636.131 97.672C634.691 97.672 633.699 98.08 633.155 98.896C632.627 99.696 632.363 100.848 632.363 102.352V109H630.251V90.76H632.363V96.112ZM649.959 95.92C651.527 95.92 652.687 96.264 653.439 96.952C654.191 97.64 654.567 98.736 654.567 100.24V109H653.031L652.623 107.176H652.527C651.967 107.88 651.375 108.4 650.751 108.736C650.143 109.072 649.295 109.24 648.207 109.24C647.039 109.24 646.071 108.936 645.303 108.328C644.535 107.704 644.151 106.736 644.151 105.424C644.151 104.144 644.655 103.16 645.663 102.472C646.671 101.768 648.223 101.384 650.319 101.32L652.503 101.248V100.48C652.503 99.408 652.271 98.664 651.807 98.248C651.343 97.832 650.687 97.624 649.839 97.624C649.167 97.624 648.527 97.728 647.919 97.936C647.311 98.128 646.743 98.352 646.215 98.608L645.567 97.024C646.127 96.72 646.791 96.464 647.559 96.256C648.327 96.032 649.127 95.92 649.959 95.92ZM650.583 102.784C648.983 102.848 647.871 103.104 647.247 103.552C646.639 104 646.335 104.632 646.335 105.448C646.335 106.168 646.551 106.696 646.983 107.032C647.431 107.368 647.999 107.536 648.687 107.536C649.775 107.536 650.679 107.24 651.399 106.648C652.119 106.04 652.479 105.112 652.479 103.864V102.712L650.583 102.784ZM664.54 95.896C664.78 95.896 665.036 95.912 665.308 95.944C665.596 95.96 665.844 95.992 666.052 96.04L665.788 97.984C665.58 97.936 665.348 97.896 665.092 97.864C664.852 97.832 664.62 97.816 664.396 97.816C663.74 97.816 663.124 98 662.548 98.368C661.972 98.72 661.508 99.224 661.156 99.88C660.82 100.52 660.652 101.272 660.652 102.136V109H658.54V96.136H660.268L660.508 98.488H660.604C661.02 97.784 661.556 97.176 662.212 96.664C662.868 96.152 663.644 95.896 664.54 95.896ZM672.857 95.92C674.425 95.92 675.585 96.264 676.337 96.952C677.089 97.64 677.465 98.736 677.465 100.24V109H675.929L675.521 107.176H675.425C674.865 107.88 674.273 108.4 673.649 108.736C673.041 109.072 672.193 109.24 671.105 109.24C669.937 109.24 668.969 108.936 668.201 108.328C667.433 107.704 667.049 106.736 667.049 105.424C667.049 104.144 667.553 103.16 668.561 102.472C669.569 101.768 671.121 101.384 673.217 101.32L675.401 101.248V100.48C675.401 99.408 675.169 98.664 674.705 98.248C674.241 97.832 673.585 97.624 672.737 97.624C672.065 97.624 671.425 97.728 670.817 97.936C670.209 98.128 669.641 98.352 669.113 98.608L668.465 97.024C669.025 96.72 669.689 96.464 670.457 96.256C671.225 96.032 672.025 95.92 672.857 95.92ZM673.481 102.784C671.881 102.848 670.769 103.104 670.145 103.552C669.537 104 669.233 104.632 669.233 105.448C669.233 106.168 669.449 106.696 669.881 107.032C670.329 107.368 670.897 107.536 671.585 107.536C672.673 107.536 673.577 107.24 674.297 106.648C675.017 106.04 675.377 105.112 675.377 103.864V102.712L673.481 102.784ZM697.681 104.416C697.681 105.936 697.129 107.12 696.025 107.968C694.921 108.816 693.433 109.24 691.561 109.24C690.601 109.24 689.713 109.168 688.897 109.024C688.081 108.88 687.401 108.68 686.857 108.424V106.36C687.433 106.616 688.145 106.848 688.993 107.056C689.857 107.264 690.745 107.368 691.657 107.368C692.937 107.368 693.897 107.12 694.537 106.624C695.193 106.128 695.521 105.456 695.521 104.608C695.521 104.048 695.401 103.576 695.161 103.192C694.921 102.808 694.505 102.456 693.913 102.136C693.337 101.8 692.529 101.448 691.489 101.08C690.033 100.552 688.929 99.904 688.177 99.136C687.441 98.368 687.073 97.32 687.073 95.992C687.073 95.08 687.305 94.304 687.769 93.664C688.233 93.008 688.873 92.504 689.689 92.152C690.521 91.8 691.473 91.624 692.545 91.624C693.489 91.624 694.353 91.712 695.137 91.888C695.921 92.064 696.633 92.296 697.273 92.584L696.601 94.432C696.009 94.176 695.361 93.96 694.657 93.784C693.969 93.608 693.249 93.52 692.497 93.52C691.425 93.52 690.617 93.752 690.073 94.216C689.529 94.664 689.257 95.264 689.257 96.016C689.257 96.592 689.377 97.072 689.617 97.456C689.857 97.84 690.249 98.184 690.793 98.488C691.337 98.792 692.073 99.12 693.001 99.472C694.009 99.84 694.857 100.24 695.545 100.672C696.249 101.088 696.777 101.592 697.129 102.184C697.497 102.776 697.681 103.52 697.681 104.416ZM702.957 96.112C702.957 96.752 702.917 97.352 702.837 97.912H702.981C703.397 97.256 703.957 96.76 704.661 96.424C705.381 96.088 706.157 95.92 706.989 95.92C708.557 95.92 709.733 96.296 710.517 97.048C711.301 97.784 711.693 98.976 711.693 100.624V109H709.605V100.768C709.605 98.704 708.645 97.672 706.725 97.672C705.285 97.672 704.293 98.08 703.749 98.896C703.221 99.696 702.957 100.848 702.957 102.352V109H700.845V90.76H702.957V96.112ZM720.553 95.92C722.121 95.92 723.281 96.264 724.033 96.952C724.785 97.64 725.161 98.736 725.161 100.24V109H723.625L723.217 107.176H723.121C722.561 107.88 721.969 108.4 721.345 108.736C720.737 109.072 719.889 109.24 718.801 109.24C717.633 109.24 716.665 108.936 715.897 108.328C715.129 107.704 714.745 106.736 714.745 105.424C714.745 104.144 715.249 103.16 716.257 102.472C717.265 101.768 718.817 101.384 720.913 101.32L723.097 101.248V100.48C723.097 99.408 722.865 98.664 722.401 98.248C721.937 97.832 721.281 97.624 720.433 97.624C719.761 97.624 719.121 97.728 718.513 97.936C717.905 98.128 717.337 98.352 716.809 98.608L716.161 97.024C716.721 96.72 717.385 96.464 718.153 96.256C718.921 96.032 719.721 95.92 720.553 95.92ZM721.177 102.784C719.577 102.848 718.465 103.104 717.841 103.552C717.233 104 716.929 104.632 716.929 105.448C716.929 106.168 717.145 106.696 717.577 107.032C718.025 107.368 718.593 107.536 719.281 107.536C720.369 107.536 721.273 107.24 721.993 106.648C722.713 106.04 723.073 105.112 723.073 103.864V102.712L721.177 102.784ZM733.694 109.24C732.094 109.24 730.814 108.688 729.854 107.584C728.894 106.464 728.414 104.8 728.414 102.592C728.414 100.384 728.894 98.72 729.854 97.6C730.83 96.464 732.118 95.896 733.718 95.896C734.71 95.896 735.518 96.08 736.142 96.448C736.782 96.816 737.302 97.264 737.702 97.792H737.846C737.83 97.584 737.798 97.28 737.75 96.88C737.718 96.464 737.702 96.136 737.702 95.896V90.76H739.814V109H738.11L737.798 107.272H737.702C737.318 107.816 736.806 108.28 736.166 108.664C735.526 109.048 734.702 109.24 733.694 109.24ZM734.03 107.488C735.39 107.488 736.342 107.12 736.886 106.384C737.446 105.632 737.726 104.504 737.726 103V102.616C737.726 101.016 737.462 99.792 736.934 98.944C736.406 98.08 735.43 97.648 734.006 97.648C732.87 97.648 732.014 98.104 731.438 99.016C730.878 99.912 730.598 101.12 730.598 102.64C730.598 104.176 730.878 105.368 731.438 106.216C732.014 107.064 732.878 107.488 734.03 107.488ZM748.771 95.92C750.339 95.92 751.499 96.264 752.251 96.952C753.003 97.64 753.379 98.736 753.379 100.24V109H751.843L751.435 107.176H751.339C750.779 107.88 750.187 108.4 749.563 108.736C748.955 109.072 748.107 109.24 747.019 109.24C745.851 109.24 744.883 108.936 744.115 108.328C743.347 107.704 742.963 106.736 742.963 105.424C742.963 104.144 743.467 103.16 744.475 102.472C745.483 101.768 747.035 101.384 749.131 101.32L751.315 101.248V100.48C751.315 99.408 751.083 98.664 750.619 98.248C750.155 97.832 749.499 97.624 748.651 97.624C747.979 97.624 747.339 97.728 746.731 97.936C746.123 98.128 745.555 98.352 745.027 98.608L744.379 97.024C744.939 96.72 745.603 96.464 746.371 96.256C747.139 96.032 747.939 95.92 748.771 95.92ZM749.395 102.784C747.795 102.848 746.683 103.104 746.059 103.552C745.451 104 745.147 104.632 745.147 105.448C745.147 106.168 745.363 106.696 745.795 107.032C746.243 107.368 746.811 107.536 747.499 107.536C748.587 107.536 749.491 107.24 750.211 106.648C750.931 106.04 751.291 105.112 751.291 103.864V102.712L749.395 102.784ZM757.185 92.656C757.185 92.192 757.305 91.856 757.545 91.648C757.785 91.424 758.081 91.312 758.433 91.312C758.753 91.312 759.033 91.424 759.273 91.648C759.529 91.856 759.657 92.192 759.657 92.656C759.657 93.104 759.529 93.44 759.273 93.664C759.033 93.888 758.753 94 758.433 94C758.081 94 757.785 93.888 757.545 93.664C757.305 93.44 757.185 93.104 757.185 92.656ZM755.841 114.76C755.441 114.76 755.088 114.728 754.784 114.664C754.48 114.616 754.216 114.552 753.992 114.472V112.768C754.232 112.832 754.48 112.888 754.736 112.936C754.992 112.984 755.273 113.008 755.577 113.008C756.089 113.008 756.513 112.864 756.849 112.576C757.185 112.304 757.353 111.776 757.353 110.992V96.136H759.465V110.92C759.465 112.12 759.177 113.056 758.601 113.728C758.025 114.416 757.105 114.76 755.841 114.76Z" fill="#838387"/>
<path d="M239.08 216L237.016 210.696H230.224L228.184 216H226L232.696 198.792H234.64L241.312 216H239.08ZM234.448 203.592C234.4 203.464 234.32 203.232 234.208 202.896C234.096 202.56 233.984 202.216 233.872 201.864C233.776 201.496 233.696 201.216 233.632 201.024C233.52 201.52 233.392 202.008 233.248 202.488C233.104 202.952 232.984 203.32 232.888 203.592L230.944 208.776H236.368L234.448 203.592ZM248.528 216.24C247.392 216.24 246.376 216.008 245.48 215.544C244.6 215.08 243.904 214.36 243.392 213.384C242.896 212.408 242.648 211.16 242.648 209.64C242.648 208.056 242.912 206.768 243.44 205.776C243.968 204.784 244.68 204.056 245.576 203.592C246.488 203.128 247.52 202.896 248.672 202.896C249.328 202.896 249.96 202.968 250.568 203.112C251.176 203.24 251.672 203.4 252.056 203.592L251.408 205.344C251.024 205.2 250.576 205.064 250.064 204.936C249.552 204.808 249.072 204.744 248.624 204.744C246.096 204.744 244.832 206.368 244.832 209.616C244.832 211.168 245.136 212.36 245.744 213.192C246.368 214.008 247.288 214.416 248.504 214.416C249.208 214.416 249.824 214.344 250.352 214.2C250.896 214.056 251.392 213.88 251.84 213.672V215.544C251.408 215.768 250.928 215.936 250.4 216.048C249.888 216.176 249.264 216.24 248.528 216.24ZM260.059 216.24C258.923 216.24 257.907 216.008 257.011 215.544C256.131 215.08 255.435 214.36 254.923 213.384C254.427 212.408 254.179 211.16 254.179 209.64C254.179 208.056 254.443 206.768 254.971 205.776C255.499 204.784 256.211 204.056 257.107 203.592C258.019 203.128 259.051 202.896 260.203 202.896C260.859 202.896 261.491 202.968 262.099 203.112C262.707 203.24 263.203 203.4 263.587 203.592L262.939 205.344C262.555 205.2 262.107 205.064 261.595 204.936C261.083 204.808 260.603 204.744 260.155 204.744C257.627 204.744 256.363 206.368 256.363 209.616C256.363 211.168 256.667 212.36 257.275 213.192C257.899 214.008 258.819 214.416 260.035 214.416C260.739 214.416 261.355 214.344 261.883 214.2C262.427 214.056 262.923 213.88 263.371 213.672V215.544C262.939 215.768 262.459 215.936 261.931 216.048C261.419 216.176 260.795 216.24 260.059 216.24ZM271.399 202.896C272.503 202.896 273.447 203.136 274.231 203.616C275.031 204.096 275.639 204.776 276.055 205.656C276.487 206.52 276.703 207.536 276.703 208.704V209.976H267.895C267.927 211.432 268.295 212.544 268.999 213.312C269.719 214.064 270.719 214.44 271.999 214.44C272.815 214.44 273.535 214.368 274.159 214.224C274.799 214.064 275.455 213.84 276.127 213.552V215.4C275.471 215.688 274.823 215.896 274.183 216.024C273.543 216.168 272.783 216.24 271.903 216.24C270.687 216.24 269.607 215.992 268.663 215.496C267.735 215 267.007 214.264 266.479 213.288C265.967 212.296 265.711 211.088 265.711 209.664C265.711 208.256 265.943 207.048 266.407 206.04C266.887 205.032 267.551 204.256 268.399 203.712C269.263 203.168 270.263 202.896 271.399 202.896ZM271.375 204.624C270.367 204.624 269.567 204.952 268.975 205.608C268.399 206.248 268.055 207.144 267.943 208.296H274.495C274.479 207.208 274.223 206.328 273.727 205.656C273.231 204.968 272.447 204.624 271.375 204.624ZM286.098 202.896C287.682 202.896 288.954 203.448 289.914 204.552C290.89 205.656 291.378 207.32 291.378 209.544C291.378 211.736 290.89 213.4 289.914 214.536C288.954 215.672 287.674 216.24 286.074 216.24C285.082 216.24 284.258 216.056 283.602 215.688C282.962 215.304 282.458 214.864 282.09 214.368H281.946C281.978 214.64 282.01 214.984 282.042 215.4C282.074 215.816 282.09 216.176 282.09 216.48V221.76H279.978V203.136H281.706L281.994 204.888H282.09C282.474 204.328 282.978 203.856 283.602 203.472C284.226 203.088 285.058 202.896 286.098 202.896ZM285.714 204.672C284.402 204.672 283.474 205.04 282.93 205.776C282.402 206.512 282.122 207.632 282.09 209.136V209.544C282.09 211.128 282.346 212.352 282.858 213.216C283.386 214.064 284.354 214.488 285.762 214.488C286.546 214.488 287.186 214.272 287.682 213.84C288.194 213.408 288.57 212.824 288.81 212.088C289.066 211.336 289.194 210.48 289.194 209.52C289.194 208.048 288.906 206.872 288.33 205.992C287.77 205.112 286.898 204.672 285.714 204.672ZM299.039 214.512C299.359 214.512 299.687 214.488 300.023 214.44C300.359 214.376 300.631 214.312 300.839 214.248V215.856C300.615 215.968 300.295 216.056 299.879 216.12C299.463 216.2 299.063 216.24 298.679 216.24C298.007 216.24 297.383 216.128 296.807 215.904C296.247 215.664 295.791 215.256 295.439 214.68C295.087 214.104 294.911 213.296 294.911 212.256V204.768H293.087V203.76L294.935 202.92L295.775 200.184H297.023V203.136H300.743V204.768H297.023V212.208C297.023 212.992 297.207 213.576 297.575 213.96C297.959 214.328 298.447 214.512 299.039 214.512ZM308.287 202.92C309.855 202.92 311.015 203.264 311.767 203.952C312.519 204.64 312.895 205.736 312.895 207.24V216H311.359L310.951 214.176H310.855C310.295 214.88 309.703 215.4 309.079 215.736C308.471 216.072 307.623 216.24 306.535 216.24C305.367 216.24 304.399 215.936 303.631 215.328C302.863 214.704 302.479 213.736 302.479 212.424C302.479 211.144 302.983 210.16 303.991 209.472C304.999 208.768 306.551 208.384 308.647 208.32L310.831 208.248V207.48C310.831 206.408 310.599 205.664 310.135 205.248C309.671 204.832 309.015 204.624 308.167 204.624C307.495 204.624 306.855 204.728 306.247 204.936C305.639 205.128 305.071 205.352 304.543 205.608L303.895 204.024C304.455 203.72 305.119 203.464 305.887 203.256C306.655 203.032 307.455 202.92 308.287 202.92ZM308.911 209.784C307.311 209.848 306.199 210.104 305.575 210.552C304.967 211 304.663 211.632 304.663 212.448C304.663 213.168 304.879 213.696 305.311 214.032C305.759 214.368 306.327 214.536 307.015 214.536C308.103 214.536 309.007 214.24 309.727 213.648C310.447 213.04 310.807 212.112 310.807 210.864V209.712L308.911 209.784ZM323.06 202.896C324.596 202.896 325.756 203.272 326.54 204.024C327.324 204.76 327.716 205.96 327.716 207.624V216H325.628V207.768C325.628 205.704 324.668 204.672 322.748 204.672C321.324 204.672 320.34 205.072 319.796 205.872C319.252 206.672 318.98 207.824 318.98 209.328V216H316.868V203.136H318.572L318.884 204.888H319.004C319.42 204.216 319.996 203.72 320.732 203.4C321.468 203.064 322.244 202.896 323.06 202.896ZM336.864 216.24C335.728 216.24 334.712 216.008 333.816 215.544C332.936 215.08 332.24 214.36 331.728 213.384C331.232 212.408 330.984 211.16 330.984 209.64C330.984 208.056 331.248 206.768 331.776 205.776C332.304 204.784 333.016 204.056 333.912 203.592C334.824 203.128 335.856 202.896 337.008 202.896C337.664 202.896 338.296 202.968 338.904 203.112C339.512 203.24 340.008 203.4 340.392 203.592L339.744 205.344C339.36 205.2 338.912 205.064 338.4 204.936C337.888 204.808 337.408 204.744 336.96 204.744C334.432 204.744 333.168 206.368 333.168 209.616C333.168 211.168 333.472 212.36 334.08 213.192C334.704 214.008 335.624 214.416 336.84 214.416C337.544 214.416 338.16 214.344 338.688 214.2C339.232 214.056 339.728 213.88 340.176 213.672V215.544C339.744 215.768 339.264 215.936 338.736 216.048C338.224 216.176 337.6 216.24 336.864 216.24ZM348.203 202.896C349.307 202.896 350.251 203.136 351.035 203.616C351.835 204.096 352.443 204.776 352.859 205.656C353.291 206.52 353.507 207.536 353.507 208.704V209.976H344.699C344.731 211.432 345.099 212.544 345.803 213.312C346.523 214.064 347.523 214.44 348.803 214.44C349.619 214.44 350.339 214.368 350.963 214.224C351.603 214.064 352.259 213.84 352.931 213.552V215.4C352.275 215.688 351.627 215.896 350.987 216.024C350.347 216.168 349.587 216.24 348.707 216.24C347.491 216.24 346.411 215.992 345.467 215.496C344.539 215 343.811 214.264 343.283 213.288C342.771 212.296 342.515 211.088 342.515 209.664C342.515 208.256 342.747 207.048 343.211 206.04C343.691 205.032 344.355 204.256 345.203 203.712C346.067 203.168 347.067 202.896 348.203 202.896ZM348.179 204.624C347.171 204.624 346.371 204.952 345.779 205.608C345.203 206.248 344.859 207.144 344.747 208.296H351.299C351.283 207.208 351.027 206.328 350.531 205.656C350.035 204.968 349.251 204.624 348.179 204.624ZM374.201 209.544C374.201 211.672 373.657 213.32 372.569 214.488C371.497 215.656 370.041 216.24 368.201 216.24C367.065 216.24 366.049 215.984 365.153 215.472C364.273 214.944 363.577 214.184 363.065 213.192C362.553 212.184 362.297 210.968 362.297 209.544C362.297 207.416 362.833 205.776 363.905 204.624C364.977 203.472 366.433 202.896 368.273 202.896C369.441 202.896 370.465 203.16 371.345 203.688C372.241 204.2 372.937 204.952 373.433 205.944C373.945 206.92 374.201 208.12 374.201 209.544ZM364.481 209.544C364.481 211.064 364.777 212.272 365.369 213.168C365.977 214.048 366.937 214.488 368.249 214.488C369.545 214.488 370.497 214.048 371.105 213.168C371.713 212.272 372.017 211.064 372.017 209.544C372.017 208.024 371.713 206.832 371.105 205.968C370.497 205.104 369.537 204.672 368.225 204.672C366.913 204.672 365.961 205.104 365.369 205.968C364.777 206.832 364.481 208.024 364.481 209.544ZM383.476 204.768H380.236V216H378.124V204.768H375.868V203.784L378.124 203.064V202.32C378.124 200.656 378.492 199.464 379.228 198.744C379.964 198.008 380.988 197.64 382.3 197.64C382.812 197.64 383.276 197.688 383.692 197.784C384.124 197.864 384.492 197.96 384.796 198.072L384.244 199.728C383.988 199.648 383.692 199.568 383.356 199.488C383.02 199.408 382.676 199.368 382.324 199.368C381.62 199.368 381.092 199.608 380.74 200.088C380.404 200.552 380.236 201.288 380.236 202.296V203.136H383.476V204.768ZM403.072 216L401.008 210.696H394.216L392.176 216H389.992L396.688 198.792H398.632L405.304 216H403.072ZM398.44 203.592C398.392 203.464 398.312 203.232 398.2 202.896C398.088 202.56 397.976 202.216 397.864 201.864C397.768 201.496 397.688 201.216 397.624 201.024C397.512 201.52 397.384 202.008 397.24 202.488C397.096 202.952 396.976 203.32 396.88 203.592L394.936 208.776H400.36L398.44 203.592ZM411.92 216.24C410.32 216.24 409.04 215.688 408.08 214.584C407.12 213.464 406.64 211.8 406.64 209.592C406.64 207.384 407.12 205.72 408.08 204.6C409.056 203.464 410.344 202.896 411.944 202.896C412.936 202.896 413.744 203.08 414.368 203.448C415.008 203.816 415.528 204.264 415.928 204.792H416.072C416.056 204.584 416.024 204.28 415.976 203.88C415.944 203.464 415.928 203.136 415.928 202.896V197.76H418.04V216H416.336L416.024 214.272H415.928C415.544 214.816 415.032 215.28 414.392 215.664C413.752 216.048 412.928 216.24 411.92 216.24ZM412.256 214.488C413.616 214.488 414.568 214.12 415.112 213.384C415.672 212.632 415.952 211.504 415.952 210V209.616C415.952 208.016 415.688 206.792 415.16 205.944C414.632 205.08 413.656 204.648 412.232 204.648C411.096 204.648 410.24 205.104 409.664 206.016C409.104 206.912 408.824 208.12 408.824 209.64C408.824 211.176 409.104 212.368 409.664 213.216C410.24 214.064 411.104 214.488 412.256 214.488ZM424.238 203.112C424.238 203.752 424.198 204.352 424.118 204.912H424.262C424.678 204.256 425.238 203.76 425.942 203.424C426.662 203.088 427.438 202.92 428.27 202.92C429.838 202.92 431.014 203.296 431.798 204.048C432.582 204.784 432.974 205.976 432.974 207.624V216H430.886V207.768C430.886 205.704 429.926 204.672 428.006 204.672C426.566 204.672 425.574 205.08 425.03 205.896C424.502 206.696 424.238 207.848 424.238 209.352V216H422.126V197.76H424.238V203.112ZM441.834 202.92C443.402 202.92 444.562 203.264 445.314 203.952C446.066 204.64 446.442 205.736 446.442 207.24V216H444.906L444.498 214.176H444.402C443.842 214.88 443.25 215.4 442.626 215.736C442.018 216.072 441.17 216.24 440.082 216.24C438.914 216.24 437.946 215.936 437.178 215.328C436.41 214.704 436.026 213.736 436.026 212.424C436.026 211.144 436.53 210.16 437.538 209.472C438.546 208.768 440.098 208.384 442.194 208.32L444.378 208.248V207.48C444.378 206.408 444.146 205.664 443.682 205.248C443.218 204.832 442.562 204.624 441.714 204.624C441.042 204.624 440.402 204.728 439.794 204.936C439.186 205.128 438.618 205.352 438.09 205.608L437.442 204.024C438.002 203.72 438.666 203.464 439.434 203.256C440.202 203.032 441.002 202.92 441.834 202.92ZM442.458 209.784C440.858 209.848 439.746 210.104 439.122 210.552C438.514 211 438.21 211.632 438.21 212.448C438.21 213.168 438.426 213.696 438.858 214.032C439.306 214.368 439.874 214.536 440.562 214.536C441.65 214.536 442.554 214.24 443.274 213.648C443.994 213.04 444.354 212.112 444.354 210.864V209.712L442.458 209.784ZM456.415 202.896C456.655 202.896 456.911 202.912 457.183 202.944C457.471 202.96 457.719 202.992 457.927 203.04L457.663 204.984C457.455 204.936 457.223 204.896 456.967 204.864C456.727 204.832 456.495 204.816 456.271 204.816C455.615 204.816 454.999 205 454.423 205.368C453.847 205.72 453.383 206.224 453.031 206.88C452.695 207.52 452.527 208.272 452.527 209.136V216H450.415V203.136H452.143L452.383 205.488H452.479C452.895 204.784 453.431 204.176 454.087 203.664C454.743 203.152 455.519 202.896 456.415 202.896ZM464.732 202.92C466.3 202.92 467.46 203.264 468.212 203.952C468.964 204.64 469.34 205.736 469.34 207.24V216H467.804L467.396 214.176H467.3C466.74 214.88 466.148 215.4 465.524 215.736C464.916 216.072 464.068 216.24 462.98 216.24C461.812 216.24 460.844 215.936 460.076 215.328C459.308 214.704 458.924 213.736 458.924 212.424C458.924 211.144 459.428 210.16 460.436 209.472C461.444 208.768 462.996 208.384 465.092 208.32L467.276 208.248V207.48C467.276 206.408 467.044 205.664 466.58 205.248C466.116 204.832 465.46 204.624 464.612 204.624C463.94 204.624 463.3 204.728 462.692 204.936C462.084 205.128 461.516 205.352 460.988 205.608L460.34 204.024C460.9 203.72 461.564 203.464 462.332 203.256C463.1 203.032 463.9 202.92 464.732 202.92ZM465.356 209.784C463.756 209.848 462.644 210.104 462.02 210.552C461.412 211 461.108 211.632 461.108 212.448C461.108 213.168 461.324 213.696 461.756 214.032C462.204 214.368 462.772 214.536 463.46 214.536C464.548 214.536 465.452 214.24 466.172 213.648C466.892 213.04 467.252 212.112 467.252 210.864V209.712L465.356 209.784ZM489.556 211.416C489.556 212.936 489.004 214.12 487.9 214.968C486.796 215.816 485.308 216.24 483.436 216.24C482.476 216.24 481.588 216.168 480.772 216.024C479.956 215.88 479.276 215.68 478.732 215.424V213.36C479.308 213.616 480.02 213.848 480.868 214.056C481.732 214.264 482.62 214.368 483.532 214.368C484.812 214.368 485.772 214.12 486.412 213.624C487.068 213.128 487.396 212.456 487.396 211.608C487.396 211.048 487.276 210.576 487.036 210.192C486.796 209.808 486.38 209.456 485.788 209.136C485.212 208.8 484.404 208.448 483.364 208.08C481.908 207.552 480.804 206.904 480.052 206.136C479.316 205.368 478.948 204.32 478.948 202.992C478.948 202.08 479.18 201.304 479.644 200.664C480.108 200.008 480.748 199.504 481.564 199.152C482.396 198.8 483.348 198.624 484.42 198.624C485.364 198.624 486.228 198.712 487.012 198.888C487.796 199.064 488.508 199.296 489.148 199.584L488.476 201.432C487.884 201.176 487.236 200.96 486.532 200.784C485.844 200.608 485.124 200.52 484.372 200.52C483.3 200.52 482.492 200.752 481.948 201.216C481.404 201.664 481.132 202.264 481.132 203.016C481.132 203.592 481.252 204.072 481.492 204.456C481.732 204.84 482.124 205.184 482.668 205.488C483.212 205.792 483.948 206.12 484.876 206.472C485.884 206.84 486.732 207.24 487.42 207.672C488.124 208.088 488.652 208.592 489.004 209.184C489.372 209.776 489.556 210.52 489.556 211.416ZM494.832 203.112C494.832 203.752 494.792 204.352 494.712 204.912H494.856C495.272 204.256 495.832 203.76 496.536 203.424C497.256 203.088 498.032 202.92 498.864 202.92C500.432 202.92 501.608 203.296 502.392 204.048C503.176 204.784 503.568 205.976 503.568 207.624V216H501.48V207.768C501.48 205.704 500.52 204.672 498.6 204.672C497.16 204.672 496.168 205.08 495.624 205.896C495.096 206.696 494.832 207.848 494.832 209.352V216H492.72V197.76H494.832V203.112ZM512.428 202.92C513.996 202.92 515.156 203.264 515.908 203.952C516.66 204.64 517.036 205.736 517.036 207.24V216H515.5L515.092 214.176H514.996C514.436 214.88 513.844 215.4 513.22 215.736C512.612 216.072 511.764 216.24 510.676 216.24C509.508 216.24 508.54 215.936 507.772 215.328C507.004 214.704 506.62 213.736 506.62 212.424C506.62 211.144 507.124 210.16 508.132 209.472C509.14 208.768 510.692 208.384 512.788 208.32L514.972 208.248V207.48C514.972 206.408 514.74 205.664 514.276 205.248C513.812 204.832 513.156 204.624 512.308 204.624C511.636 204.624 510.996 204.728 510.388 204.936C509.78 205.128 509.212 205.352 508.684 205.608L508.036 204.024C508.596 203.72 509.26 203.464 510.028 203.256C510.796 203.032 511.596 202.92 512.428 202.92ZM513.052 209.784C511.452 209.848 510.34 210.104 509.716 210.552C509.108 211 508.804 211.632 508.804 212.448C508.804 213.168 509.02 213.696 509.452 214.032C509.9 214.368 510.468 214.536 511.156 214.536C512.244 214.536 513.148 214.24 513.868 213.648C514.588 213.04 514.948 212.112 514.948 210.864V209.712L513.052 209.784ZM525.569 216.24C523.969 216.24 522.689 215.688 521.729 214.584C520.769 213.464 520.289 211.8 520.289 209.592C520.289 207.384 520.769 205.72 521.729 204.6C522.705 203.464 523.993 202.896 525.593 202.896C526.585 202.896 527.393 203.08 528.017 203.448C528.657 203.816 529.177 204.264 529.577 204.792H529.721C529.705 204.584 529.673 204.28 529.625 203.88C529.593 203.464 529.577 203.136 529.577 202.896V197.76H531.689V216H529.985L529.673 214.272H529.577C529.193 214.816 528.681 215.28 528.041 215.664C527.401 216.048 526.577 216.24 525.569 216.24ZM525.905 214.488C527.265 214.488 528.217 214.12 528.761 213.384C529.321 212.632 529.601 211.504 529.601 210V209.616C529.601 208.016 529.337 206.792 528.809 205.944C528.281 205.08 527.305 204.648 525.881 204.648C524.745 204.648 523.889 205.104 523.313 206.016C522.753 206.912 522.473 208.12 522.473 209.64C522.473 211.176 522.753 212.368 523.313 213.216C523.889 214.064 524.753 214.488 525.905 214.488ZM540.646 202.92C542.214 202.92 543.374 203.264 544.126 203.952C544.878 204.64 545.254 205.736 545.254 207.24V216H543.718L543.31 214.176H543.214C542.654 214.88 542.062 215.4 541.438 215.736C540.83 216.072 539.982 216.24 538.894 216.24C537.726 216.24 536.758 215.936 535.99 215.328C535.222 214.704 534.838 213.736 534.838 212.424C534.838 211.144 535.342 210.16 536.35 209.472C537.358 208.768 538.91 208.384 541.006 208.32L543.19 208.248V207.48C543.19 206.408 542.958 205.664 542.494 205.248C542.03 204.832 541.374 204.624 540.526 204.624C539.854 204.624 539.214 204.728 538.606 204.936C537.998 205.128 537.43 205.352 536.902 205.608L536.254 204.024C536.814 203.72 537.478 203.464 538.246 203.256C539.014 203.032 539.814 202.92 540.646 202.92ZM541.27 209.784C539.67 209.848 538.558 210.104 537.934 210.552C537.326 211 537.022 211.632 537.022 212.448C537.022 213.168 537.238 213.696 537.67 214.032C538.118 214.368 538.686 214.536 539.374 214.536C540.462 214.536 541.366 214.24 542.086 213.648C542.806 213.04 543.166 212.112 543.166 210.864V209.712L541.27 209.784ZM549.06 199.656C549.06 199.192 549.18 198.856 549.42 198.648C549.66 198.424 549.956 198.312 550.308 198.312C550.628 198.312 550.908 198.424 551.148 198.648C551.404 198.856 551.532 199.192 551.532 199.656C551.532 200.104 551.404 200.44 551.148 200.664C550.908 200.888 550.628 201 550.308 201C549.956 201 549.66 200.888 549.42 200.664C549.18 200.44 549.06 200.104 549.06 199.656ZM547.716 221.76C547.316 221.76 546.963 221.728 546.659 221.664C546.355 221.616 546.091 221.552 545.867 221.472V219.768C546.107 219.832 546.355 219.888 546.611 219.936C546.867 219.984 547.148 220.008 547.452 220.008C547.964 220.008 548.388 219.864 548.724 219.576C549.06 219.304 549.228 218.776 549.228 217.992V203.136H551.34V217.92C551.34 219.12 551.052 220.056 550.476 220.728C549.9 221.416 548.98 221.76 547.716 221.76Z" fill="#838387"/>
<line x1="51.5" y1="50" x2="51.5" y2="250" stroke="#838387" stroke-width="3"/>
<line x1="460.5" y1="83" x2="460.5" y2="190" stroke="#838387"/>
<line x1="320.5" y1="83" x2="320.5" y2="190" stroke="#838387"/>
<line x1="30" y1="148.5" x2="770" y2="148.5" stroke="#838387" stroke-width="3"/>
<path d="M50 128.5L65 137.16V119.84L50 128.5ZM320 128.5L305 119.84V137.16L320 128.5ZM63.5 130H306.5V127H63.5V130Z" fill="#838387"/>
<path d="M460 128.5L475 137.16V119.84L460 128.5ZM770 128.5L755 119.84V137.16L770 128.5ZM473.5 130H756.5V127H473.5V130Z" fill="#838387"/>
<path d="M320 177L335 185.66V168.34L320 177ZM460 177L445 168.34V185.66L460 177ZM333.5 178.5H446.5V175.5H333.5V178.5Z" fill="#838387"/>
</svg>
