<svg width="184" height="112" viewBox="0 0 184 112" fill="none" xmlns="http://www.w3.org/2000/svg">
<path d="M2 87.8889L3.32026 85.8287L4.78722 83.7685L7.42775 79.8354L8.74802 77.9625L10.215 76.1832L11.5352 74.4976L12.8555 72.9057L14.1758 71.501L15.6427 70.2836L16.963 69.1598L18.2833 68.2234L19.7502 67.3806L21.0705 66.8187L22.3908 66.4441L23.711 66.2568H25.178L26.4982 66.4441L27.8185 66.8187L29.1388 67.3806L30.6057 68.2234L31.926 69.1598L33.2463 70.2836L34.7132 71.501L36.0335 72.9057L37.3538 74.4976L38.674 76.1832L40.141 77.9625L41.4612 79.8354L44.1018 83.7685L45.5687 85.8287L48.2093 89.9491L49.6762 92.0093L52.3167 95.9424L53.637 97.8153L55.104 99.5946L56.4242 101.28L57.7445 102.872L59.0648 104.277L60.5317 105.494L61.852 106.618L63.1723 107.554L64.6392 108.397L65.9595 108.959L67.2797 109.334L68.6 109.521H70.067L71.3872 109.334L72.7075 108.959L74.0278 108.397L75.4947 107.554L76.815 106.618L78.1353 105.494L79.6022 104.277L80.9225 102.872L82.2427 101.28L83.563 99.5946L85.03 97.8153L86.3502 95.9424L88.9908 92.0093L90.4577 89.9491L93.0983 85.8287L94.5652 83.7685L97.2057 79.8354L98.526 77.9625L99.993 76.1832L101.313 74.4976L102.633 72.9057L103.954 71.501L105.421 70.2836L106.741 69.1598L108.061 68.2234L109.528 67.3806L110.848 66.8187L112.169 66.4441L113.489 66.2568H114.956L116.276 66.4441L117.596 66.8187L118.917 67.3806L120.384 68.2234L121.704 69.1598L123.024 70.2836L124.491 71.501L125.811 72.9057L127.132 74.4976L128.452 76.1832L129.919 77.9625L131.239 79.8354L133.88 83.7685L135.347 85.8287L136.667 87.8889L138.431 90.1895L139.898 92.2497L142.539 96.1828L143.859 98.0557L145.326 99.835L146.646 101.521L147.967 103.113L149.287 104.517L150.754 105.735L152.074 106.858L153.394 107.795L154.861 108.638L156.181 109.199L157.502 109.574L158.822 109.761H160.289L161.609 109.574L162.93 109.199L164.25 108.638L165.717 107.795L167.037 106.858L168.357 105.735L169.824 104.517L171.144 103.113L172.465 101.521L173.785 99.835L175.252 98.0557L176.572 96.1828L179.213 92.2497L180.68 90.1895L182 88.1293" stroke="#F76F8E" stroke-width="4" stroke-linecap="round" stroke-linejoin="round"/>
<path d="M2 43.6408L2.88092 42.1175L3.85972 40.5943L5.62157 37.6862L6.50249 36.3014L7.48129 34.9859L8.36221 33.7396L9.24313 32.5625L10.1241 31.5239L11.1029 30.6238L11.9838 29.7929L12.8647 29.1005L13.8435 28.4774L14.7244 28.0619L15.6053 27.785L16.4863 27.6465H17.4651L18.346 27.785L19.2269 28.0619L20.1078 28.4774L21.0866 29.1005L21.9676 29.7929L22.8485 30.6238L23.8273 31.5239L24.7082 32.5625L25.5891 33.7396L26.47 34.9859L27.4488 36.3014L28.3298 37.6862L30.0916 40.5943L31.0704 42.1175L32.8323 45.1641L33.8111 46.6873L35.5729 49.5954L36.4538 50.9802L37.4326 52.2957L38.3135 53.542L39.1945 54.7191L40.0754 55.7577L41.0542 56.6578L41.9351 57.4887L42.816 58.1811L43.7948 58.8042L44.6758 59.2197L45.5567 59.4966L46.4376 59.6351H47.4164L48.2973 59.4966L49.1782 59.2197L50.0592 58.8042L51.038 58.1811L51.9189 57.4887L52.7998 56.6578L53.7786 55.7577L54.6595 54.7191L55.5404 53.542L56.4214 52.2957L57.4002 50.9802L58.2811 49.5954L60.0429 46.6873L61.0217 45.1641L62.7836 42.1175L63.7624 40.5943L65.5242 37.6862L66.4051 36.3014L67.3839 34.9859L68.2649 33.7396L69.1458 32.5625L70.0267 31.5239L71.0055 30.6238L71.8864 29.7929L72.7674 29.1005L73.7462 28.4774L74.6271 28.0619L75.508 27.785L76.3889 27.6465H77.3677L78.2486 27.785L79.1296 28.0619L80.0105 28.4774L80.9893 29.1005L81.8702 29.7929L82.7511 30.6238L83.7299 31.5239L84.6109 32.5625L85.4918 33.7396L86.3727 34.9859L87.3515 36.3014L88.2324 37.6862L89.9943 40.5943L90.9731 42.1175L91.854 43.6408L93.0269 45.8038L94.0057 47.3271L95.7676 50.2352L96.6485 51.62L97.6273 52.9355L98.5082 54.1818L99.3891 55.3589L100.27 56.3975L101.249 57.2976L102.13 58.1285L103.011 58.8209L103.99 59.444L104.87 59.8594L105.751 60.1364L106.632 60.2749H107.611L108.492 60.1364L109.373 59.8594L110.254 59.444L111.233 58.8209L112.114 58.1285L112.994 57.2976L113.973 56.3975L114.854 55.3589L115.735 54.1818L116.616 52.9355L117.595 51.62L118.476 50.2352L120.238 47.3271L121.216 45.8038L122.978 42.7573L123.957 41.234L125.719 38.326L126.6 36.9412L127.579 35.6256L128.46 34.3793L129.34 33.2023L130.221 32.1637L131.2 31.2636L132.081 30.4327L132.962 29.7403L133.941 29.1171L134.822 28.7017L135.703 28.4247L136.584 28.2863H137.562L138.443 28.4247L139.324 28.7017L140.205 29.1171L141.184 29.7403L142.065 30.4327L142.946 31.2636L143.925 32.1637L144.806 33.2023L145.686 34.3793L146.567 35.6256L147.546 36.9412L148.427 38.326L150.189 41.234L151.168 42.7573L152.93 45.8038L153.908 47.3271L155.67 50.2352L156.551 51.62L157.53 52.9355L158.411 54.1818L159.292 55.3589L160.173 56.3975L161.152 57.2976L162.032 58.1285L162.913 58.8209L163.892 59.444L164.773 59.8594L165.654 60.1364L166.535 60.2749H167.514L168.395 60.1364L169.276 59.8594L170.156 59.444L171.135 58.8209L172.016 58.1285L172.897 57.2976L173.876 56.3975L174.757 55.3589L175.638 54.1818L176.519 52.9355L177.498 51.62L178.378 50.2352L180.14 47.3271L181.119 45.8038L182 44.2806" stroke="#F76F8E" stroke-width="3" stroke-linecap="round" stroke-linejoin="round"/>
<path d="M2 11.8761L2.6627 10.8403L3.39903 9.80449L4.72444 7.82701L5.38714 6.88535L6.12347 5.99078L6.78617 5.14329L7.44887 4.34288L8.11157 3.63664L8.84791 3.02456L9.51061 2.45957L10.1733 1.98874L10.9096 1.56499L11.5723 1.2825L12.235 1.09417L12.8977 1H13.6341L14.2968 1.09417L14.9595 1.2825L15.6222 1.56499L16.3585 1.98874L17.0212 2.45957L17.6839 3.02456L18.4203 3.63664L19.083 4.34288L19.7457 5.14329L20.4084 5.99078L21.1447 6.88535L21.8074 7.82701L23.1328 9.80449L23.8691 10.8403L25.1945 12.912L25.9309 13.9478L27.2563 15.9253L27.919 16.8669L28.6553 17.7615L29.318 18.609L29.9807 19.4094L30.6434 20.1156L31.3797 20.7277L32.0424 21.2927L32.7051 21.7635L33.4415 22.1873L34.1042 22.4698L34.7669 22.6581L35.4296 22.7523H36.1659L36.8286 22.6581L37.4913 22.4698L38.154 22.1873L38.8903 21.7635L39.553 21.2927L40.2157 20.7277L40.9521 20.1156L41.6148 19.4094L42.2775 18.609L42.9402 17.7615L43.6765 16.8669L44.3392 15.9253L45.6646 13.9478L46.4009 12.912L47.7263 10.8403L48.4627 9.80449L49.7881 7.82701L50.4508 6.88535L51.1871 5.99078L51.8498 5.14329L52.5125 4.34288L53.1752 3.63664L53.9116 3.02456L54.5743 2.45957L55.237 1.98874L55.9733 1.56499L56.636 1.2825L57.2987 1.09417L57.9614 1H58.6977L59.3604 1.09417L60.0231 1.2825L60.6858 1.56499L61.4222 1.98874L62.0849 2.45957L62.7476 3.02456L63.4839 3.63664L64.1466 4.34288L64.8093 5.14329L65.472 5.99078L66.2083 6.88535L66.871 7.82701L68.1964 9.80449L68.9328 10.8403L69.5955 11.8761L70.1309 12.912L70.8672 13.9478L72.1926 15.9253L72.8553 16.8669L73.5917 17.7615L74.2544 18.609L74.9171 19.4094L75.5798 20.1156L76.3161 20.7277L76.9788 21.2927L77.6415 21.7635L78.3778 22.1873L79.0405 22.4698L79.7032 22.6581L80.3659 22.7523H81.1023L81.765 22.6581L82.4277 22.4698L83.0904 22.1873L83.8267 21.7635L84.4894 21.2927L85.1521 20.7277L85.8884 20.1156L86.5511 19.4094L87.2138 18.609L87.8765 17.7615L88.6129 16.8669L89.2756 15.9253L90.601 13.9478L91.3373 12.912L92.6627 10.8403L93.399 9.80449L94.7244 7.82701L95.3871 6.88535L96.1235 5.99078L96.7862 5.14329L97.4489 4.34288L98.1116 3.63664L98.8479 3.02456L99.5106 2.45957L100.173 1.98874L100.91 1.56499L101.572 1.2825L102.235 1.09417L102.898 1H103.634L104.297 1.09417L104.959 1.2825L105.622 1.56499L106.359 1.98874L107.021 2.45957L107.684 3.02456L108.42 3.63664L109.083 4.34288L109.746 5.14329L110.408 5.99078L111.145 6.88535L111.807 7.82701L113.133 9.80449L113.869 10.8403L115.195 12.912L115.931 13.9478L117.256 15.9253L117.919 16.8669L118.655 17.7615L119.318 18.609L119.981 19.4094L120.643 20.1156L121.38 20.7277L122.042 21.2927L122.705 21.7635L123.441 22.1873L124.104 22.4698L124.767 22.6581L125.43 22.7523H126.166L126.829 22.6581L127.491 22.4698L128.154 22.1873L128.89 21.7635L129.553 21.2927L130.216 20.7277L130.952 20.1156L131.615 19.4094L132.277 18.609L132.94 17.7615L133.677 16.8669L134.339 15.9253L135.665 13.9478L136.401 12.912L137.064 11.8761L137.599 10.8403L138.335 9.80449L139.661 7.82701L140.323 6.88535L141.06 5.99078L141.723 5.14329L142.385 4.34288L143.048 3.63664L143.784 3.02456L144.447 2.45957L145.11 1.98874L145.846 1.56499L146.509 1.2825L147.171 1.09417L147.834 1H148.57L149.233 1.09417L149.896 1.2825L150.559 1.56499L151.295 1.98874L151.958 2.45957L152.62 3.02456L153.357 3.63664L154.019 4.34288L154.682 5.14329L155.345 5.99078L156.081 6.88535L156.744 7.82701L158.069 9.80449L158.805 10.8403L160.131 12.912L160.867 13.9478L162.193 15.9253L162.855 16.8669L163.592 17.7615L164.254 18.609L164.917 19.4094L165.58 20.1156L166.316 20.7277L166.979 21.2927L167.641 21.7635L168.378 22.1873L169.041 22.4698L169.703 22.6581L170.366 22.7523H171.102L171.765 22.6581L172.428 22.4698L173.09 22.1873L173.827 21.7635L174.489 21.2927L175.152 20.7277L175.888 20.1156L176.551 19.4094L177.214 18.609L177.877 17.7615L178.613 16.8669L179.276 15.9253L180.601 13.9478L181.337 12.912L182 11.8761" stroke="#F76F8E" stroke-width="2" stroke-linecap="round" stroke-linejoin="round"/>
</svg>
