<svg width="26" height="18" viewBox="0 0 26 18" fill="none" xmlns="http://www.w3.org/2000/svg">
<path d="M1 14.0747L1.17604 13.7991L1.37163 13.5236L1.7237 12.9976L1.89974 12.7471L2.09533 12.5092L2.27137 12.2837L2.4474 12.0708L2.62344 11.883L2.81903 11.7202L2.99507 11.5699L3.1711 11.4446L3.3667 11.3319L3.54273 11.2568L3.71877 11.2067L3.8948 11.1816H4.0904L4.26643 11.2067L4.44247 11.2568L4.6185 11.3319L4.8141 11.4446L4.99013 11.5699L5.16617 11.7202L5.36176 11.883L5.5378 12.0708L5.71383 12.2837L5.88987 12.5092L6.08546 12.7471L6.2615 12.9976L6.61357 13.5236L6.80916 13.7991L7.16124 14.3502L7.35683 14.6257L7.7089 15.1517L7.88494 15.4022L8.08053 15.6401L8.25657 15.8656L8.4326 16.0785L8.60864 16.2663L8.80423 16.4291L8.98027 16.5794L9.1563 16.7047L9.3519 16.8174L9.52793 16.8925L9.70397 16.9426L9.88 16.9677H10.0756L10.2516 16.9426L10.4277 16.8925L10.6037 16.8174L10.7993 16.7047L10.9753 16.5794L11.1514 16.4291L11.347 16.2663L11.523 16.0785L11.699 15.8656L11.8751 15.6401L12.0707 15.4022L12.2467 15.1517L12.5988 14.6257L12.7944 14.3502L13.1464 13.7991L13.342 13.5236L13.6941 12.9976L13.8701 12.7471L14.0657 12.5092L14.2418 12.2837L14.4178 12.0708L14.5938 11.883L14.7894 11.7202L14.9655 11.5699L15.1415 11.4446L15.3371 11.3319L15.5131 11.2568L15.6892 11.2067L15.8652 11.1816H16.0608L16.2368 11.2067L16.4129 11.2568L16.5889 11.3319L16.7845 11.4446L16.9605 11.5699L17.1366 11.7202L17.3322 11.883L17.5082 12.0708L17.6842 12.2837L17.8603 12.5092L18.0559 12.7471L18.2319 12.9976L18.584 13.5236L18.7796 13.7991L18.9556 14.0747L19.1908 14.3823L19.3864 14.6579L19.7385 15.1839L19.9145 15.4343L20.1101 15.6723L20.2862 15.8977L20.4622 16.1106L20.6382 16.2985L20.8338 16.4613L21.0099 16.6116L21.1859 16.7368L21.3815 16.8495L21.5575 16.9247L21.7336 16.9748L21.9096 16.9998H22.1052L22.2812 16.9748L22.4573 16.9247L22.6333 16.8495L22.8289 16.7368L23.0049 16.6116L23.181 16.4613L23.3766 16.2985L23.5526 16.1106L23.7286 15.8977L23.9047 15.6723L24.1003 15.4343L24.2763 15.1839L24.6284 14.6579L24.824 14.3823L25 14.1068" stroke="#F76F8E" stroke-linecap="round" stroke-linejoin="round"/>
<path d="M1 7.43005L1.11746 7.22634L1.24796 7.02262L1.48288 6.6337L1.60033 6.4485L1.73084 6.27257L1.84829 6.10589L1.96575 5.94847L2.08321 5.80957L2.21371 5.68919L2.33117 5.57807L2.44863 5.48547L2.57913 5.40213L2.69659 5.34658L2.81405 5.30954L2.9315 5.29102H3.06201L3.17946 5.30954L3.29692 5.34658L3.41438 5.40213L3.54488 5.48547L3.66234 5.57807L3.7798 5.68919L3.9103 5.80957L4.02776 5.94847L4.14522 6.10589L4.26267 6.27257L4.39318 6.4485L4.51063 6.6337L4.74555 7.02262L4.87605 7.22634L5.11097 7.63377L5.24147 7.83749L5.47639 8.2264L5.59384 8.4116L5.72435 8.58754L5.84181 8.75422L5.95926 8.91164L6.07672 9.05054L6.20722 9.17091L6.32468 9.28203L6.44214 9.37463L6.57264 9.45797L6.6901 9.51353L6.80756 9.55057L6.92501 9.56909H7.05552L7.17298 9.55057L7.29043 9.51353L7.40789 9.45797L7.53839 9.37463L7.65585 9.28203L7.77331 9.17091L7.90381 9.05054L8.02127 8.91164L8.13873 8.75422L8.25618 8.58754L8.38669 8.4116L8.50414 8.2264L8.73906 7.83749L8.86956 7.63377L9.10448 7.22634L9.23498 7.02262L9.4699 6.6337L9.58735 6.4485L9.71786 6.27257L9.83532 6.10589L9.95277 5.94847L10.0702 5.80957L10.2007 5.68919L10.3182 5.57807L10.4356 5.48547L10.5662 5.40213L10.6836 5.34658L10.8011 5.30954L10.9185 5.29102H11.049L11.1665 5.30954L11.2839 5.34658L11.4014 5.40213L11.5319 5.48547L11.6494 5.57807L11.7668 5.68919L11.8973 5.80957L12.0148 5.94847L12.1322 6.10589L12.2497 6.27257L12.3802 6.4485L12.4977 6.6337L12.7326 7.02262L12.8631 7.22634L12.9805 7.43005L13.1369 7.71933L13.2674 7.92305L13.5023 8.31197L13.6198 8.49716L13.7503 8.6731L13.8678 8.83978L13.9852 8.9972L14.1027 9.1361L14.2332 9.25648L14.3506 9.36759L14.4681 9.46019L14.5986 9.54353L14.7161 9.59909L14.8335 9.63613L14.951 9.65465H15.0815L15.1989 9.63613L15.3164 9.59909L15.4338 9.54353L15.5644 9.46019L15.6818 9.36759L15.7993 9.25648L15.9298 9.1361L16.0472 8.9972L16.1647 8.83978L16.2821 8.6731L16.4126 8.49716L16.5301 8.31197L16.765 7.92305L16.8955 7.71933L17.1304 7.3119L17.2609 7.10818L17.4959 6.71926L17.6133 6.53406L17.7438 6.35813L17.8613 6.19145L17.9787 6.03403L18.0962 5.89513L18.2267 5.77475L18.3441 5.66363L18.4616 5.57104L18.5921 5.4877L18.7096 5.43214L18.827 5.3951L18.9445 5.37658H19.075L19.1924 5.3951L19.3099 5.43214L19.4274 5.4877L19.5579 5.57104L19.6753 5.66363L19.7928 5.77475L19.9233 5.89513L20.0407 6.03403L20.1582 6.19145L20.2757 6.35813L20.4062 6.53406L20.5236 6.71926L20.7585 7.10818L20.889 7.3119L21.1239 7.71933L21.2545 7.92305L21.4894 8.31197L21.6068 8.49716L21.7373 8.6731L21.8548 8.83978L21.9722 8.9972L22.0897 9.1361L22.2202 9.25648L22.3377 9.36759L22.4551 9.46019L22.5856 9.54353L22.7031 9.59909L22.8205 9.63613L22.938 9.65465H23.0685L23.186 9.63613L23.3034 9.59909L23.4209 9.54353L23.5514 9.46019L23.6688 9.36759L23.7863 9.25648L23.9168 9.1361L24.0342 8.9972L24.1517 8.83978L24.2692 8.6731L24.3997 8.49716L24.5171 8.31197L24.752 7.92305L24.8825 7.71933L25 7.51561" stroke="#F76F8E" stroke-linecap="round" stroke-linejoin="round"/>
<path d="M1 2.45455L1.08836 2.31602L1.18654 2.17749L1.36326 1.91303L1.45162 1.78709L1.5498 1.66745L1.63816 1.55411L1.72652 1.44707L1.81488 1.35262L1.91305 1.27076L2.00141 1.1952L2.08977 1.13223L2.18795 1.07556L2.27631 1.03778L2.36467 1.01259L2.45303 1H2.55121L2.63957 1.01259L2.72793 1.03778L2.81629 1.07556L2.91447 1.13223L3.00283 1.1952L3.09119 1.27076L3.18937 1.35262L3.27773 1.44707L3.36609 1.55411L3.45445 1.66745L3.55262 1.78709L3.64099 1.91303L3.81771 2.17749L3.91588 2.31602L4.0926 2.59307L4.19078 2.7316L4.3675 2.99606L4.45586 3.122L4.55404 3.24164L4.6424 3.35498L4.73076 3.46202L4.81912 3.55647L4.9173 3.63833L5.00566 3.71389L5.09402 3.77686L5.1922 3.83353L5.28056 3.87131L5.36892 3.8965L5.45728 3.90909H5.55545L5.64381 3.8965L5.73217 3.87131L5.82053 3.83353L5.91871 3.77686L6.00707 3.71389L6.09543 3.63833L6.19361 3.55647L6.28197 3.46202L6.37033 3.35498L6.45869 3.24164L6.55687 3.122L6.64523 2.99606L6.82195 2.7316L6.92013 2.59307L7.09685 2.31602L7.19502 2.17749L7.37174 1.91303L7.4601 1.78709L7.55828 1.66745L7.64664 1.55411L7.735 1.44707L7.82336 1.35262L7.92154 1.27076L8.0099 1.1952L8.09826 1.13223L8.19644 1.07556L8.2848 1.03778L8.37316 1.01259L8.46152 1H8.5597L8.64806 1.01259L8.73642 1.03778L8.82478 1.07556L8.92296 1.13223L9.01132 1.1952L9.09968 1.27076L9.19785 1.35262L9.28621 1.44707L9.37457 1.55411L9.46293 1.66745L9.56111 1.78709L9.64947 1.91303L9.82619 2.17749L9.92437 2.31602L10.0127 2.45455L10.0841 2.59307L10.1823 2.7316L10.359 2.99606L10.4474 3.122L10.5456 3.24164L10.6339 3.35498L10.7223 3.46202L10.8106 3.55647L10.9088 3.63833L10.9972 3.71389L11.0855 3.77686L11.1837 3.83353L11.2721 3.87131L11.3604 3.8965L11.4488 3.90909H11.547L11.6353 3.8965L11.7237 3.87131L11.812 3.83353L11.9102 3.77686L11.9986 3.71389L12.0869 3.63833L12.1851 3.55647L12.2735 3.46202L12.3618 3.35498L12.4502 3.24164L12.5484 3.122L12.6367 2.99606L12.8135 2.7316L12.9116 2.59307L13.0884 2.31602L13.1865 2.17749L13.3633 1.91303L13.4516 1.78709L13.5498 1.66745L13.6382 1.55411L13.7265 1.44707L13.8149 1.35262L13.9131 1.27076L14.0014 1.1952L14.0898 1.13223L14.188 1.07556L14.2763 1.03778L14.3647 1.01259L14.453 1H14.5512L14.6396 1.01259L14.7279 1.03778L14.8163 1.07556L14.9145 1.13223L15.0028 1.1952L15.0912 1.27076L15.1894 1.35262L15.2777 1.44707L15.3661 1.55411L15.4544 1.66745L15.5526 1.78709L15.641 1.91303L15.8177 2.17749L15.9159 2.31602L16.0926 2.59307L16.1908 2.7316L16.3675 2.99606L16.4559 3.122L16.554 3.24164L16.6424 3.35498L16.7308 3.46202L16.8191 3.55647L16.9173 3.63833L17.0057 3.71389L17.094 3.77686L17.1922 3.83353L17.2806 3.87131L17.3689 3.8965L17.4573 3.90909H17.5555L17.6438 3.8965L17.7322 3.87131L17.8205 3.83353L17.9187 3.77686L18.0071 3.71389L18.0954 3.63833L18.1936 3.55647L18.282 3.46202L18.3703 3.35498L18.4587 3.24164L18.5569 3.122L18.6452 2.99606L18.8219 2.7316L18.9201 2.59307L19.0085 2.45455L19.0799 2.31602L19.1781 2.17749L19.3548 1.91303L19.4431 1.78709L19.5413 1.66745L19.6297 1.55411L19.718 1.44707L19.8064 1.35262L19.9046 1.27076L19.9929 1.1952L20.0813 1.13223L20.1795 1.07556L20.2678 1.03778L20.3562 1.01259L20.4445 1H20.5427L20.6311 1.01259L20.7194 1.03778L20.8078 1.07556L20.906 1.13223L20.9943 1.1952L21.0827 1.27076L21.1809 1.35262L21.2692 1.44707L21.3576 1.55411L21.446 1.66745L21.5441 1.78709L21.6325 1.91303L21.8092 2.17749L21.9074 2.31602L22.0841 2.59307L22.1823 2.7316L22.359 2.99606L22.4474 3.122L22.5456 3.24164L22.6339 3.35498L22.7223 3.46202L22.8106 3.55647L22.9088 3.63833L22.9972 3.71389L23.0855 3.77686L23.1837 3.83353L23.2721 3.87131L23.3604 3.8965L23.4488 3.90909H23.547L23.6353 3.8965L23.7237 3.87131L23.812 3.83353L23.9102 3.77686L23.9986 3.71389L24.0869 3.63833L24.1851 3.55647L24.2735 3.46202L24.3618 3.35498L24.4502 3.24164L24.5484 3.122L24.6367 2.99606L24.8135 2.7316L24.9116 2.59307L25 2.45455" stroke="#F76F8E" stroke-linecap="round" stroke-linejoin="round"/>
</svg>
